<mxfile host="app.diagrams.net" modified="2023-09-19T18:55:28.438Z" agent="Mozilla/5.0 (Macintosh; Intel Mac OS X 10_15_7) AppleWebKit/537.36 (KHTML, like Gecko) Chrome/116.0.0.0 Safari/537.36" etag="fX7hyY-ChmnGBnQZlmUc" version="21.7.5" type="device">
  <diagram name="Page-1" id="lsv_XWlk18c6j3biG5iI">
    <mxGraphModel dx="1004" dy="676" grid="1" gridSize="10" guides="1" tooltips="1" connect="1" arrows="1" fold="1" page="1" pageScale="1" pageWidth="827" pageHeight="1169" math="0" shadow="0">
      <root>
        <mxCell id="0" />
        <mxCell id="1" parent="0" />
        <mxCell id="UkKZLe3R2Le43pYpYWWC-5" style="edgeStyle=orthogonalEdgeStyle;rounded=0;orthogonalLoop=1;jettySize=auto;html=1;exitX=0.5;exitY=1;exitDx=0;exitDy=0;entryX=0.5;entryY=0;entryDx=0;entryDy=0;" edge="1" parent="1" source="9eQ1BcSMEKE9wpSTh2Wq-3" target="UkKZLe3R2Le43pYpYWWC-2">
          <mxGeometry relative="1" as="geometry" />
        </mxCell>
        <mxCell id="9eQ1BcSMEKE9wpSTh2Wq-3" value="Launch" style="rounded=0;whiteSpace=wrap;html=1;" parent="1" vertex="1">
          <mxGeometry x="360" y="20" width="150" height="50" as="geometry" />
        </mxCell>
        <mxCell id="UkKZLe3R2Le43pYpYWWC-4" style="edgeStyle=orthogonalEdgeStyle;rounded=0;orthogonalLoop=1;jettySize=auto;html=1;exitX=0;exitY=0.5;exitDx=0;exitDy=0;entryX=1;entryY=0.5;entryDx=0;entryDy=0;" edge="1" parent="1" source="UkKZLe3R2Le43pYpYWWC-2" target="UkKZLe3R2Le43pYpYWWC-3">
          <mxGeometry relative="1" as="geometry" />
        </mxCell>
        <mxCell id="UkKZLe3R2Le43pYpYWWC-7" style="edgeStyle=orthogonalEdgeStyle;rounded=0;orthogonalLoop=1;jettySize=auto;html=1;exitX=1;exitY=0.5;exitDx=0;exitDy=0;entryX=0;entryY=0.5;entryDx=0;entryDy=0;" edge="1" parent="1" source="UkKZLe3R2Le43pYpYWWC-2" target="UkKZLe3R2Le43pYpYWWC-6">
          <mxGeometry relative="1" as="geometry" />
        </mxCell>
        <mxCell id="UkKZLe3R2Le43pYpYWWC-9" style="edgeStyle=orthogonalEdgeStyle;rounded=0;orthogonalLoop=1;jettySize=auto;html=1;exitX=0.5;exitY=1;exitDx=0;exitDy=0;entryX=0.5;entryY=0;entryDx=0;entryDy=0;" edge="1" parent="1" source="UkKZLe3R2Le43pYpYWWC-2" target="UkKZLe3R2Le43pYpYWWC-8">
          <mxGeometry relative="1" as="geometry" />
        </mxCell>
        <mxCell id="UkKZLe3R2Le43pYpYWWC-2" value="Menu" style="rhombus;whiteSpace=wrap;html=1;" vertex="1" parent="1">
          <mxGeometry x="395" y="120" width="80" height="80" as="geometry" />
        </mxCell>
        <mxCell id="UkKZLe3R2Le43pYpYWWC-3" value="Disconnect" style="rounded=0;whiteSpace=wrap;html=1;" vertex="1" parent="1">
          <mxGeometry x="190" y="135" width="150" height="50" as="geometry" />
        </mxCell>
        <mxCell id="UkKZLe3R2Le43pYpYWWC-6" value="Settings" style="rounded=0;whiteSpace=wrap;html=1;" vertex="1" parent="1">
          <mxGeometry x="520" y="135" width="150" height="50" as="geometry" />
        </mxCell>
        <mxCell id="UkKZLe3R2Le43pYpYWWC-14" style="edgeStyle=orthogonalEdgeStyle;rounded=0;orthogonalLoop=1;jettySize=auto;html=1;exitX=1;exitY=0.5;exitDx=0;exitDy=0;entryX=0;entryY=0.5;entryDx=0;entryDy=0;" edge="1" parent="1" source="UkKZLe3R2Le43pYpYWWC-8" target="UkKZLe3R2Le43pYpYWWC-10">
          <mxGeometry relative="1" as="geometry" />
        </mxCell>
        <mxCell id="UkKZLe3R2Le43pYpYWWC-8" value="Play" style="rounded=0;whiteSpace=wrap;html=1;" vertex="1" parent="1">
          <mxGeometry x="360" y="240" width="150" height="50" as="geometry" />
        </mxCell>
        <mxCell id="UkKZLe3R2Le43pYpYWWC-15" style="edgeStyle=orthogonalEdgeStyle;rounded=0;orthogonalLoop=1;jettySize=auto;html=1;exitX=1;exitY=0.5;exitDx=0;exitDy=0;entryX=0;entryY=0.5;entryDx=0;entryDy=0;" edge="1" parent="1" source="UkKZLe3R2Le43pYpYWWC-10" target="UkKZLe3R2Le43pYpYWWC-12">
          <mxGeometry relative="1" as="geometry" />
        </mxCell>
        <mxCell id="UkKZLe3R2Le43pYpYWWC-17" style="edgeStyle=orthogonalEdgeStyle;rounded=0;orthogonalLoop=1;jettySize=auto;html=1;exitX=1;exitY=0.5;exitDx=0;exitDy=0;entryX=0;entryY=0.5;entryDx=0;entryDy=0;" edge="1" parent="1" source="UkKZLe3R2Le43pYpYWWC-10" target="UkKZLe3R2Le43pYpYWWC-11">
          <mxGeometry relative="1" as="geometry" />
        </mxCell>
        <mxCell id="UkKZLe3R2Le43pYpYWWC-18" style="edgeStyle=orthogonalEdgeStyle;rounded=0;orthogonalLoop=1;jettySize=auto;html=1;exitX=1;exitY=0.5;exitDx=0;exitDy=0;entryX=0;entryY=0.5;entryDx=0;entryDy=0;" edge="1" parent="1" source="UkKZLe3R2Le43pYpYWWC-10" target="UkKZLe3R2Le43pYpYWWC-13">
          <mxGeometry relative="1" as="geometry" />
        </mxCell>
        <mxCell id="UkKZLe3R2Le43pYpYWWC-20" style="edgeStyle=orthogonalEdgeStyle;rounded=0;orthogonalLoop=1;jettySize=auto;html=1;exitX=1;exitY=0.5;exitDx=0;exitDy=0;entryX=0;entryY=0.5;entryDx=0;entryDy=0;" edge="1" parent="1" source="UkKZLe3R2Le43pYpYWWC-10" target="UkKZLe3R2Le43pYpYWWC-19">
          <mxGeometry relative="1" as="geometry" />
        </mxCell>
        <mxCell id="UkKZLe3R2Le43pYpYWWC-22" style="edgeStyle=orthogonalEdgeStyle;rounded=0;orthogonalLoop=1;jettySize=auto;html=1;exitX=0.5;exitY=1;exitDx=0;exitDy=0;entryX=0.5;entryY=0;entryDx=0;entryDy=0;" edge="1" parent="1" source="UkKZLe3R2Le43pYpYWWC-10" target="UkKZLe3R2Le43pYpYWWC-21">
          <mxGeometry relative="1" as="geometry" />
        </mxCell>
        <mxCell id="UkKZLe3R2Le43pYpYWWC-10" value="Init" style="rounded=0;whiteSpace=wrap;html=1;" vertex="1" parent="1">
          <mxGeometry x="560" y="240" width="150" height="50" as="geometry" />
        </mxCell>
        <mxCell id="UkKZLe3R2Le43pYpYWWC-11" value="Init Player" style="rounded=0;whiteSpace=wrap;html=1;" vertex="1" parent="1">
          <mxGeometry x="760" y="240" width="150" height="50" as="geometry" />
        </mxCell>
        <mxCell id="UkKZLe3R2Le43pYpYWWC-12" value="Init Items" style="rounded=0;whiteSpace=wrap;html=1;" vertex="1" parent="1">
          <mxGeometry x="760" y="170" width="150" height="50" as="geometry" />
        </mxCell>
        <mxCell id="UkKZLe3R2Le43pYpYWWC-13" value="Init Illagers" style="rounded=0;whiteSpace=wrap;html=1;" vertex="1" parent="1">
          <mxGeometry x="760" y="310" width="150" height="50" as="geometry" />
        </mxCell>
        <mxCell id="UkKZLe3R2Le43pYpYWWC-19" value="Init Map" style="rounded=0;whiteSpace=wrap;html=1;" vertex="1" parent="1">
          <mxGeometry x="760" y="100" width="150" height="50" as="geometry" />
        </mxCell>
        <mxCell id="UkKZLe3R2Le43pYpYWWC-24" style="edgeStyle=orthogonalEdgeStyle;rounded=0;orthogonalLoop=1;jettySize=auto;html=1;exitX=0.5;exitY=1;exitDx=0;exitDy=0;entryX=0.5;entryY=0;entryDx=0;entryDy=0;" edge="1" parent="1" source="UkKZLe3R2Le43pYpYWWC-21" target="UkKZLe3R2Le43pYpYWWC-23">
          <mxGeometry relative="1" as="geometry" />
        </mxCell>
        <mxCell id="UkKZLe3R2Le43pYpYWWC-21" value="Chapter" style="rounded=0;whiteSpace=wrap;html=1;" vertex="1" parent="1">
          <mxGeometry x="560" y="440" width="150" height="50" as="geometry" />
        </mxCell>
        <mxCell id="UkKZLe3R2Le43pYpYWWC-41" style="edgeStyle=orthogonalEdgeStyle;rounded=0;orthogonalLoop=1;jettySize=auto;html=1;exitX=0.5;exitY=1;exitDx=0;exitDy=0;entryX=0.5;entryY=0;entryDx=0;entryDy=0;" edge="1" parent="1" source="UkKZLe3R2Le43pYpYWWC-23" target="UkKZLe3R2Le43pYpYWWC-34">
          <mxGeometry relative="1" as="geometry" />
        </mxCell>
        <mxCell id="UkKZLe3R2Le43pYpYWWC-23" value="Round" style="rounded=0;whiteSpace=wrap;html=1;" vertex="1" parent="1">
          <mxGeometry x="560" y="560" width="150" height="50" as="geometry" />
        </mxCell>
        <mxCell id="UkKZLe3R2Le43pYpYWWC-55" style="edgeStyle=orthogonalEdgeStyle;rounded=0;orthogonalLoop=1;jettySize=auto;html=1;exitX=0.5;exitY=1;exitDx=0;exitDy=0;entryX=0.5;entryY=0;entryDx=0;entryDy=0;" edge="1" parent="1" source="UkKZLe3R2Le43pYpYWWC-25" target="UkKZLe3R2Le43pYpYWWC-52">
          <mxGeometry relative="1" as="geometry" />
        </mxCell>
        <mxCell id="UkKZLe3R2Le43pYpYWWC-25" value="Random zone" style="rounded=0;whiteSpace=wrap;html=1;" vertex="1" parent="1">
          <mxGeometry x="475" y="760" width="150" height="50" as="geometry" />
        </mxCell>
        <mxCell id="UkKZLe3R2Le43pYpYWWC-56" style="edgeStyle=orthogonalEdgeStyle;rounded=0;orthogonalLoop=1;jettySize=auto;html=1;exitX=0.5;exitY=1;exitDx=0;exitDy=0;entryX=0.5;entryY=0;entryDx=0;entryDy=0;" edge="1" parent="1" source="UkKZLe3R2Le43pYpYWWC-26" target="UkKZLe3R2Le43pYpYWWC-52">
          <mxGeometry relative="1" as="geometry" />
        </mxCell>
        <mxCell id="UkKZLe3R2Le43pYpYWWC-26" value="Random zone" style="rounded=0;whiteSpace=wrap;html=1;" vertex="1" parent="1">
          <mxGeometry x="660" y="760" width="150" height="50" as="geometry" />
        </mxCell>
        <mxCell id="UkKZLe3R2Le43pYpYWWC-57" style="edgeStyle=orthogonalEdgeStyle;rounded=0;orthogonalLoop=1;jettySize=auto;html=1;exitX=0.5;exitY=1;exitDx=0;exitDy=0;entryX=0.5;entryY=0;entryDx=0;entryDy=0;" edge="1" parent="1" source="UkKZLe3R2Le43pYpYWWC-27" target="UkKZLe3R2Le43pYpYWWC-52">
          <mxGeometry relative="1" as="geometry" />
        </mxCell>
        <mxCell id="UkKZLe3R2Le43pYpYWWC-27" value="Random zone" style="rounded=0;whiteSpace=wrap;html=1;" vertex="1" parent="1">
          <mxGeometry x="290" y="760" width="150" height="50" as="geometry" />
        </mxCell>
        <mxCell id="UkKZLe3R2Le43pYpYWWC-58" style="edgeStyle=orthogonalEdgeStyle;rounded=0;orthogonalLoop=1;jettySize=auto;html=1;exitX=0.5;exitY=1;exitDx=0;exitDy=0;" edge="1" parent="1" source="UkKZLe3R2Le43pYpYWWC-28" target="UkKZLe3R2Le43pYpYWWC-52">
          <mxGeometry relative="1" as="geometry" />
        </mxCell>
        <mxCell id="UkKZLe3R2Le43pYpYWWC-28" value="Random zone" style="rounded=0;whiteSpace=wrap;html=1;" vertex="1" parent="1">
          <mxGeometry x="840" y="760" width="150" height="50" as="geometry" />
        </mxCell>
        <mxCell id="UkKZLe3R2Le43pYpYWWC-42" style="edgeStyle=orthogonalEdgeStyle;rounded=0;orthogonalLoop=1;jettySize=auto;html=1;exitX=0.5;exitY=1;exitDx=0;exitDy=0;entryX=0.5;entryY=0;entryDx=0;entryDy=0;" edge="1" parent="1" source="UkKZLe3R2Le43pYpYWWC-34" target="UkKZLe3R2Le43pYpYWWC-25">
          <mxGeometry relative="1" as="geometry" />
        </mxCell>
        <mxCell id="UkKZLe3R2Le43pYpYWWC-44" style="edgeStyle=orthogonalEdgeStyle;rounded=0;orthogonalLoop=1;jettySize=auto;html=1;exitX=0.5;exitY=1;exitDx=0;exitDy=0;entryX=0.5;entryY=0;entryDx=0;entryDy=0;" edge="1" parent="1" source="UkKZLe3R2Le43pYpYWWC-34" target="UkKZLe3R2Le43pYpYWWC-27">
          <mxGeometry relative="1" as="geometry" />
        </mxCell>
        <mxCell id="UkKZLe3R2Le43pYpYWWC-45" style="edgeStyle=orthogonalEdgeStyle;rounded=0;orthogonalLoop=1;jettySize=auto;html=1;exitX=0.5;exitY=1;exitDx=0;exitDy=0;entryX=0.5;entryY=0;entryDx=0;entryDy=0;" edge="1" parent="1" source="UkKZLe3R2Le43pYpYWWC-34" target="UkKZLe3R2Le43pYpYWWC-26">
          <mxGeometry relative="1" as="geometry" />
        </mxCell>
        <mxCell id="UkKZLe3R2Le43pYpYWWC-46" style="edgeStyle=orthogonalEdgeStyle;rounded=0;orthogonalLoop=1;jettySize=auto;html=1;exitX=0.5;exitY=1;exitDx=0;exitDy=0;" edge="1" parent="1" source="UkKZLe3R2Le43pYpYWWC-34" target="UkKZLe3R2Le43pYpYWWC-28">
          <mxGeometry relative="1" as="geometry" />
        </mxCell>
        <mxCell id="UkKZLe3R2Le43pYpYWWC-47" style="edgeStyle=orthogonalEdgeStyle;rounded=0;orthogonalLoop=1;jettySize=auto;html=1;exitX=1;exitY=0.5;exitDx=0;exitDy=0;entryX=0;entryY=0.5;entryDx=0;entryDy=0;" edge="1" parent="1" source="UkKZLe3R2Le43pYpYWWC-34" target="UkKZLe3R2Le43pYpYWWC-36">
          <mxGeometry relative="1" as="geometry" />
        </mxCell>
        <mxCell id="UkKZLe3R2Le43pYpYWWC-48" style="edgeStyle=orthogonalEdgeStyle;rounded=0;orthogonalLoop=1;jettySize=auto;html=1;exitX=1;exitY=0.5;exitDx=0;exitDy=0;entryX=0;entryY=0.5;entryDx=0;entryDy=0;" edge="1" parent="1" source="UkKZLe3R2Le43pYpYWWC-34" target="UkKZLe3R2Le43pYpYWWC-37">
          <mxGeometry relative="1" as="geometry" />
        </mxCell>
        <mxCell id="UkKZLe3R2Le43pYpYWWC-49" style="edgeStyle=orthogonalEdgeStyle;rounded=0;orthogonalLoop=1;jettySize=auto;html=1;exitX=1;exitY=0.5;exitDx=0;exitDy=0;entryX=0;entryY=0.5;entryDx=0;entryDy=0;" edge="1" parent="1" source="UkKZLe3R2Le43pYpYWWC-34" target="UkKZLe3R2Le43pYpYWWC-38">
          <mxGeometry relative="1" as="geometry" />
        </mxCell>
        <mxCell id="UkKZLe3R2Le43pYpYWWC-50" style="edgeStyle=orthogonalEdgeStyle;rounded=0;orthogonalLoop=1;jettySize=auto;html=1;exitX=1;exitY=0.5;exitDx=0;exitDy=0;entryX=0;entryY=0.5;entryDx=0;entryDy=0;" edge="1" parent="1" source="UkKZLe3R2Le43pYpYWWC-34" target="UkKZLe3R2Le43pYpYWWC-39">
          <mxGeometry relative="1" as="geometry" />
        </mxCell>
        <mxCell id="UkKZLe3R2Le43pYpYWWC-51" style="edgeStyle=orthogonalEdgeStyle;rounded=0;orthogonalLoop=1;jettySize=auto;html=1;exitX=1;exitY=0.5;exitDx=0;exitDy=0;entryX=0;entryY=0.5;entryDx=0;entryDy=0;" edge="1" parent="1" source="UkKZLe3R2Le43pYpYWWC-34" target="UkKZLe3R2Le43pYpYWWC-40">
          <mxGeometry relative="1" as="geometry" />
        </mxCell>
        <mxCell id="UkKZLe3R2Le43pYpYWWC-34" value="Select a random zone" style="rounded=0;whiteSpace=wrap;html=1;" vertex="1" parent="1">
          <mxGeometry x="560" y="640" width="150" height="50" as="geometry" />
        </mxCell>
        <mxCell id="UkKZLe3R2Le43pYpYWWC-36" value="Safe" style="rounded=0;whiteSpace=wrap;html=1;" vertex="1" parent="1">
          <mxGeometry x="800" y="670" width="150" height="50" as="geometry" />
        </mxCell>
        <mxCell id="UkKZLe3R2Le43pYpYWWC-37" value="Shop" style="rounded=0;whiteSpace=wrap;html=1;" vertex="1" parent="1">
          <mxGeometry x="800" y="610" width="150" height="50" as="geometry" />
        </mxCell>
        <mxCell id="UkKZLe3R2Le43pYpYWWC-38" value="Fight" style="rounded=0;whiteSpace=wrap;html=1;" vertex="1" parent="1">
          <mxGeometry x="800" y="550" width="150" height="50" as="geometry" />
        </mxCell>
        <mxCell id="UkKZLe3R2Le43pYpYWWC-39" value="Ressources" style="rounded=0;whiteSpace=wrap;html=1;" vertex="1" parent="1">
          <mxGeometry x="800" y="490" width="150" height="50" as="geometry" />
        </mxCell>
        <mxCell id="UkKZLe3R2Le43pYpYWWC-40" value="Bonus" style="rounded=0;whiteSpace=wrap;html=1;" vertex="1" parent="1">
          <mxGeometry x="800" y="430" width="150" height="50" as="geometry" />
        </mxCell>
        <mxCell id="UkKZLe3R2Le43pYpYWWC-83" style="edgeStyle=orthogonalEdgeStyle;rounded=0;orthogonalLoop=1;jettySize=auto;html=1;exitX=0.5;exitY=1;exitDx=0;exitDy=0;entryX=0.5;entryY=0;entryDx=0;entryDy=0;" edge="1" parent="1" source="UkKZLe3R2Le43pYpYWWC-52" target="UkKZLe3R2Le43pYpYWWC-67">
          <mxGeometry relative="1" as="geometry" />
        </mxCell>
        <mxCell id="UkKZLe3R2Le43pYpYWWC-84" style="edgeStyle=orthogonalEdgeStyle;rounded=0;orthogonalLoop=1;jettySize=auto;html=1;exitX=0.5;exitY=1;exitDx=0;exitDy=0;entryX=0.5;entryY=0;entryDx=0;entryDy=0;" edge="1" parent="1" source="UkKZLe3R2Le43pYpYWWC-52" target="UkKZLe3R2Le43pYpYWWC-80">
          <mxGeometry relative="1" as="geometry" />
        </mxCell>
        <mxCell id="UkKZLe3R2Le43pYpYWWC-90" style="edgeStyle=orthogonalEdgeStyle;rounded=0;orthogonalLoop=1;jettySize=auto;html=1;exitX=0.5;exitY=1;exitDx=0;exitDy=0;entryX=0.5;entryY=0;entryDx=0;entryDy=0;" edge="1" parent="1" source="UkKZLe3R2Le43pYpYWWC-52" target="UkKZLe3R2Le43pYpYWWC-88">
          <mxGeometry relative="1" as="geometry" />
        </mxCell>
        <mxCell id="UkKZLe3R2Le43pYpYWWC-94" style="edgeStyle=orthogonalEdgeStyle;rounded=0;orthogonalLoop=1;jettySize=auto;html=1;exitX=0.5;exitY=1;exitDx=0;exitDy=0;entryX=0.5;entryY=0;entryDx=0;entryDy=0;" edge="1" parent="1" source="UkKZLe3R2Le43pYpYWWC-52" target="UkKZLe3R2Le43pYpYWWC-92">
          <mxGeometry relative="1" as="geometry" />
        </mxCell>
        <mxCell id="UkKZLe3R2Le43pYpYWWC-97" style="edgeStyle=orthogonalEdgeStyle;rounded=0;orthogonalLoop=1;jettySize=auto;html=1;exitX=0.5;exitY=1;exitDx=0;exitDy=0;" edge="1" parent="1" source="UkKZLe3R2Le43pYpYWWC-52" target="UkKZLe3R2Le43pYpYWWC-96">
          <mxGeometry relative="1" as="geometry" />
        </mxCell>
        <mxCell id="UkKZLe3R2Le43pYpYWWC-52" value="Zone selected" style="rounded=0;whiteSpace=wrap;html=1;" vertex="1" parent="1">
          <mxGeometry x="560" y="880" width="150" height="50" as="geometry" />
        </mxCell>
        <mxCell id="UkKZLe3R2Le43pYpYWWC-62" value="25%" style="text;html=1;align=center;verticalAlign=middle;resizable=0;points=[];autosize=1;strokeColor=none;fillColor=none;" vertex="1" parent="1">
          <mxGeometry x="750" y="550" width="50" height="30" as="geometry" />
        </mxCell>
        <mxCell id="UkKZLe3R2Le43pYpYWWC-64" value="25%" style="text;html=1;align=center;verticalAlign=middle;resizable=0;points=[];autosize=1;strokeColor=none;fillColor=none;" vertex="1" parent="1">
          <mxGeometry x="750" y="490" width="50" height="30" as="geometry" />
        </mxCell>
        <mxCell id="UkKZLe3R2Le43pYpYWWC-65" value="25%" style="text;html=1;align=center;verticalAlign=middle;resizable=0;points=[];autosize=1;strokeColor=none;fillColor=none;" vertex="1" parent="1">
          <mxGeometry x="750" y="610" width="50" height="30" as="geometry" />
        </mxCell>
        <mxCell id="UkKZLe3R2Le43pYpYWWC-66" value="25%" style="text;html=1;align=center;verticalAlign=middle;resizable=0;points=[];autosize=1;strokeColor=none;fillColor=none;" vertex="1" parent="1">
          <mxGeometry x="750" y="670" width="50" height="30" as="geometry" />
        </mxCell>
        <mxCell id="UkKZLe3R2Le43pYpYWWC-77" style="edgeStyle=orthogonalEdgeStyle;rounded=0;orthogonalLoop=1;jettySize=auto;html=1;exitX=0.5;exitY=1;exitDx=0;exitDy=0;" edge="1" parent="1" source="UkKZLe3R2Le43pYpYWWC-67" target="UkKZLe3R2Le43pYpYWWC-74">
          <mxGeometry relative="1" as="geometry" />
        </mxCell>
        <mxCell id="UkKZLe3R2Le43pYpYWWC-78" style="edgeStyle=orthogonalEdgeStyle;rounded=0;orthogonalLoop=1;jettySize=auto;html=1;exitX=0.5;exitY=1;exitDx=0;exitDy=0;" edge="1" parent="1" source="UkKZLe3R2Le43pYpYWWC-67" target="UkKZLe3R2Le43pYpYWWC-75">
          <mxGeometry relative="1" as="geometry" />
        </mxCell>
        <mxCell id="UkKZLe3R2Le43pYpYWWC-67" value="Fight" style="rounded=0;whiteSpace=wrap;html=1;" vertex="1" parent="1">
          <mxGeometry x="290" y="1000" width="150" height="50" as="geometry" />
        </mxCell>
        <mxCell id="UkKZLe3R2Le43pYpYWWC-79" style="edgeStyle=orthogonalEdgeStyle;rounded=0;orthogonalLoop=1;jettySize=auto;html=1;exitX=0;exitY=0.5;exitDx=0;exitDy=0;entryX=1;entryY=0.5;entryDx=0;entryDy=0;" edge="1" parent="1" source="UkKZLe3R2Le43pYpYWWC-74" target="UkKZLe3R2Le43pYpYWWC-76">
          <mxGeometry relative="1" as="geometry" />
        </mxCell>
        <mxCell id="UkKZLe3R2Le43pYpYWWC-74" value="Loose" style="rounded=0;whiteSpace=wrap;html=1;" vertex="1" parent="1">
          <mxGeometry x="210" y="1090" width="150" height="50" as="geometry" />
        </mxCell>
        <mxCell id="UkKZLe3R2Le43pYpYWWC-103" style="edgeStyle=orthogonalEdgeStyle;rounded=0;orthogonalLoop=1;jettySize=auto;html=1;exitX=0.5;exitY=1;exitDx=0;exitDy=0;entryX=0.5;entryY=0;entryDx=0;entryDy=0;" edge="1" parent="1" source="UkKZLe3R2Le43pYpYWWC-75" target="UkKZLe3R2Le43pYpYWWC-102">
          <mxGeometry relative="1" as="geometry" />
        </mxCell>
        <mxCell id="UkKZLe3R2Le43pYpYWWC-75" value="Win" style="rounded=0;whiteSpace=wrap;html=1;" vertex="1" parent="1">
          <mxGeometry x="370" y="1090" width="150" height="50" as="geometry" />
        </mxCell>
        <mxCell id="UkKZLe3R2Le43pYpYWWC-76" value="Gamer Over" style="rounded=0;whiteSpace=wrap;html=1;fillColor=#f8cecc;strokeColor=#b85450;" vertex="1" parent="1">
          <mxGeometry x="20" y="1090" width="150" height="50" as="geometry" />
        </mxCell>
        <mxCell id="UkKZLe3R2Le43pYpYWWC-87" style="edgeStyle=orthogonalEdgeStyle;rounded=0;orthogonalLoop=1;jettySize=auto;html=1;exitX=0.5;exitY=1;exitDx=0;exitDy=0;entryX=0.5;entryY=0;entryDx=0;entryDy=0;" edge="1" parent="1" source="UkKZLe3R2Le43pYpYWWC-80" target="UkKZLe3R2Le43pYpYWWC-86">
          <mxGeometry relative="1" as="geometry" />
        </mxCell>
        <mxCell id="UkKZLe3R2Le43pYpYWWC-80" value="Safe" style="rounded=0;whiteSpace=wrap;html=1;" vertex="1" parent="1">
          <mxGeometry x="560" y="1000" width="150" height="50" as="geometry" />
        </mxCell>
        <mxCell id="UkKZLe3R2Le43pYpYWWC-104" style="edgeStyle=orthogonalEdgeStyle;rounded=0;orthogonalLoop=1;jettySize=auto;html=1;exitX=0.5;exitY=1;exitDx=0;exitDy=0;entryX=0.5;entryY=0;entryDx=0;entryDy=0;" edge="1" parent="1" source="UkKZLe3R2Le43pYpYWWC-86" target="UkKZLe3R2Le43pYpYWWC-102">
          <mxGeometry relative="1" as="geometry" />
        </mxCell>
        <mxCell id="UkKZLe3R2Le43pYpYWWC-86" value="Heal &amp;amp; Revive" style="rounded=0;whiteSpace=wrap;html=1;" vertex="1" parent="1">
          <mxGeometry x="560" y="1090" width="150" height="50" as="geometry" />
        </mxCell>
        <mxCell id="UkKZLe3R2Le43pYpYWWC-91" style="edgeStyle=orthogonalEdgeStyle;rounded=0;orthogonalLoop=1;jettySize=auto;html=1;exitX=0.5;exitY=1;exitDx=0;exitDy=0;entryX=0.5;entryY=0;entryDx=0;entryDy=0;" edge="1" parent="1" source="UkKZLe3R2Le43pYpYWWC-88" target="UkKZLe3R2Le43pYpYWWC-89">
          <mxGeometry relative="1" as="geometry" />
        </mxCell>
        <mxCell id="UkKZLe3R2Le43pYpYWWC-88" value="Shop" style="rounded=0;whiteSpace=wrap;html=1;" vertex="1" parent="1">
          <mxGeometry x="760" y="1000" width="150" height="50" as="geometry" />
        </mxCell>
        <mxCell id="UkKZLe3R2Le43pYpYWWC-105" style="edgeStyle=orthogonalEdgeStyle;rounded=0;orthogonalLoop=1;jettySize=auto;html=1;exitX=0.5;exitY=1;exitDx=0;exitDy=0;entryX=0.5;entryY=0;entryDx=0;entryDy=0;" edge="1" parent="1" source="UkKZLe3R2Le43pYpYWWC-89" target="UkKZLe3R2Le43pYpYWWC-102">
          <mxGeometry relative="1" as="geometry" />
        </mxCell>
        <mxCell id="UkKZLe3R2Le43pYpYWWC-89" value="Craft &amp;amp; Buy items" style="rounded=0;whiteSpace=wrap;html=1;" vertex="1" parent="1">
          <mxGeometry x="760" y="1090" width="150" height="50" as="geometry" />
        </mxCell>
        <mxCell id="UkKZLe3R2Le43pYpYWWC-95" style="edgeStyle=orthogonalEdgeStyle;rounded=0;orthogonalLoop=1;jettySize=auto;html=1;exitX=0.5;exitY=1;exitDx=0;exitDy=0;entryX=0.5;entryY=0;entryDx=0;entryDy=0;" edge="1" parent="1" source="UkKZLe3R2Le43pYpYWWC-92" target="UkKZLe3R2Le43pYpYWWC-93">
          <mxGeometry relative="1" as="geometry" />
        </mxCell>
        <mxCell id="UkKZLe3R2Le43pYpYWWC-92" value="Ressources" style="rounded=0;whiteSpace=wrap;html=1;" vertex="1" parent="1">
          <mxGeometry x="960" y="1000" width="150" height="50" as="geometry" />
        </mxCell>
        <mxCell id="UkKZLe3R2Le43pYpYWWC-106" style="edgeStyle=orthogonalEdgeStyle;rounded=0;orthogonalLoop=1;jettySize=auto;html=1;exitX=0.5;exitY=1;exitDx=0;exitDy=0;" edge="1" parent="1" source="UkKZLe3R2Le43pYpYWWC-93" target="UkKZLe3R2Le43pYpYWWC-102">
          <mxGeometry relative="1" as="geometry" />
        </mxCell>
        <mxCell id="UkKZLe3R2Le43pYpYWWC-93" value="Receive resources" style="rounded=0;whiteSpace=wrap;html=1;" vertex="1" parent="1">
          <mxGeometry x="960" y="1090" width="150" height="50" as="geometry" />
        </mxCell>
        <mxCell id="UkKZLe3R2Le43pYpYWWC-98" style="edgeStyle=orthogonalEdgeStyle;rounded=0;orthogonalLoop=1;jettySize=auto;html=1;exitX=1;exitY=0.5;exitDx=0;exitDy=0;entryX=0;entryY=0.5;entryDx=0;entryDy=0;" edge="1" parent="1" source="UkKZLe3R2Le43pYpYWWC-96" target="UkKZLe3R2Le43pYpYWWC-67">
          <mxGeometry relative="1" as="geometry" />
        </mxCell>
        <mxCell id="UkKZLe3R2Le43pYpYWWC-96" value="Bonus" style="rounded=0;whiteSpace=wrap;html=1;" vertex="1" parent="1">
          <mxGeometry x="50" y="1000" width="150" height="50" as="geometry" />
        </mxCell>
        <mxCell id="UkKZLe3R2Le43pYpYWWC-99" value="if yes" style="text;html=1;align=center;verticalAlign=middle;resizable=0;points=[];autosize=1;strokeColor=none;fillColor=none;" vertex="1" parent="1">
          <mxGeometry x="220" y="1000" width="50" height="30" as="geometry" />
        </mxCell>
        <mxCell id="UkKZLe3R2Le43pYpYWWC-108" style="edgeStyle=orthogonalEdgeStyle;rounded=0;orthogonalLoop=1;jettySize=auto;html=1;exitX=0.5;exitY=1;exitDx=0;exitDy=0;entryX=0.5;entryY=0;entryDx=0;entryDy=0;" edge="1" parent="1" source="UkKZLe3R2Le43pYpYWWC-102" target="UkKZLe3R2Le43pYpYWWC-107">
          <mxGeometry relative="1" as="geometry" />
        </mxCell>
        <mxCell id="UkKZLe3R2Le43pYpYWWC-102" value="Next Round" style="rounded=0;whiteSpace=wrap;html=1;" vertex="1" parent="1">
          <mxGeometry x="560" y="1218" width="150" height="50" as="geometry" />
        </mxCell>
        <mxCell id="UkKZLe3R2Le43pYpYWWC-111" style="edgeStyle=orthogonalEdgeStyle;rounded=0;orthogonalLoop=1;jettySize=auto;html=1;exitX=0.5;exitY=1;exitDx=0;exitDy=0;entryX=0.5;entryY=0;entryDx=0;entryDy=0;" edge="1" parent="1" source="UkKZLe3R2Le43pYpYWWC-107" target="UkKZLe3R2Le43pYpYWWC-109">
          <mxGeometry relative="1" as="geometry" />
        </mxCell>
        <mxCell id="UkKZLe3R2Le43pYpYWWC-107" value="Next Chapter" style="rounded=0;whiteSpace=wrap;html=1;" vertex="1" parent="1">
          <mxGeometry x="560" y="1300" width="150" height="50" as="geometry" />
        </mxCell>
        <mxCell id="UkKZLe3R2Le43pYpYWWC-112" style="edgeStyle=orthogonalEdgeStyle;rounded=0;orthogonalLoop=1;jettySize=auto;html=1;exitX=1;exitY=0.5;exitDx=0;exitDy=0;entryX=0;entryY=0.5;entryDx=0;entryDy=0;" edge="1" parent="1" source="UkKZLe3R2Le43pYpYWWC-109" target="UkKZLe3R2Le43pYpYWWC-110">
          <mxGeometry relative="1" as="geometry" />
        </mxCell>
        <mxCell id="UkKZLe3R2Le43pYpYWWC-109" value="Last Chapter &amp;amp; Round" style="rounded=0;whiteSpace=wrap;html=1;" vertex="1" parent="1">
          <mxGeometry x="560" y="1390" width="150" height="50" as="geometry" />
        </mxCell>
        <mxCell id="UkKZLe3R2Le43pYpYWWC-110" value="EndGame Win" style="rounded=0;whiteSpace=wrap;html=1;fillColor=#d5e8d4;strokeColor=#82b366;" vertex="1" parent="1">
          <mxGeometry x="770" y="1390" width="150" height="50" as="geometry" />
        </mxCell>
      </root>
    </mxGraphModel>
  </diagram>
</mxfile>
